HIERARCHY
ROOT Hips
{
  OFFSET -32.5998 29.0326 120.673
  CHANNELS 6 Xposition Yposition Zposition Zrotation Xrotation Yrotation
  JOINT LeftUpLeg
  {
    OFFSET 8.64259 1.95398 -2.38835
    CHANNELS 3 Zrotation Xrotation Yrotation
    JOINT LeftLeg
    {
      OFFSET 43.7702 0 0
      CHANNELS 3 Zrotation Xrotation Yrotation
      JOINT LeftFoot
      {
        OFFSET 40.6238 0 0
        CHANNELS 3 Zrotation Xrotation Yrotation
        JOINT LeftToeBase
        {
          OFFSET 12.7242 0 0
          CHANNELS 3 Zrotation Xrotation Yrotation
          End Site
          {
            OFFSET 0 0 0
          }
        }
      }
    }
  }
  JOINT RightUpLeg
  {
    OFFSET -8.2249 1.95398 -2.59336
    CHANNELS 3 Zrotation Xrotation Yrotation
    JOINT RightLeg
    {
      OFFSET 43.5653 0 0
      CHANNELS 3 Zrotation Xrotation Yrotation
      JOINT RightFoot
      {
        OFFSET 40.6238 0 0
        CHANNELS 3 Zrotation Xrotation Yrotation
        JOINT RightToeBase
        {
          OFFSET 12.7242 0 0
          CHANNELS 3 Zrotation Xrotation Yrotation
          End Site
          {
            OFFSET 0 0 0
          }
        }
      }
    }
  }
  JOINT Spine
  {
    OFFSET 0.165834 0.87714 6.61349
    CHANNELS 3 Zrotation Xrotation Yrotation
    JOINT Spine1
    {
      OFFSET 7.38963 1.71661e-005 0
      CHANNELS 3 Zrotation Xrotation Yrotation
      JOINT Spine2
      {
        OFFSET 11.9445 1.14441e-005 0
        CHANNELS 3 Zrotation Xrotation Yrotation
        JOINT Spine3
        {
          OFFSET 14.7254 4.19617e-005 0
          CHANNELS 3 Zrotation Xrotation Yrotation
          JOINT Spine4
          {
            OFFSET 10.9679 0 0
            CHANNELS 3 Zrotation Xrotation Yrotation
            JOINT RightShoulder
            {
              OFFSET 2.46616 -1.6653 3.69651
              CHANNELS 3 Zrotation Xrotation Yrotation
              JOINT RightArm
              {
                OFFSET 13.0012 0 0
                CHANNELS 3 Zrotation Xrotation Yrotation
                JOINT RightForeArm
                {
                  OFFSET 28.7848 1.62311e-005 0
                  CHANNELS 3 Zrotation Xrotation Yrotation
                  JOINT RightHand
                  {
                    OFFSET 26.5688 1.62095e-005 0
                    CHANNELS 3 Zrotation Xrotation Yrotation
                    End Site
                    {
                      OFFSET 0 0 0
                    }
                  }
                }
              }
            }
            JOINT LeftShoulder
            {
              OFFSET 2.38034 -1.29275 -3.7523
              CHANNELS 3 Zrotation Xrotation Yrotation
              JOINT LeftArm
              {
                OFFSET 16.3182 6.07031e-005 0
                CHANNELS 3 Zrotation Xrotation Yrotation
                JOINT LeftForeArm
                {
                  OFFSET 27.0901 0 0
                  CHANNELS 3 Zrotation Xrotation Yrotation
                  JOINT LeftHand
                  {
                    OFFSET 24.5451 1.51738e-005 0
                    CHANNELS 3 Zrotation Xrotation Yrotation
                    End Site
                    {
                      OFFSET 0 0 0
                    }
                  }
                }
              }
            }
            JOINT Neck
            {
              OFFSET 5.0226 -0.0266342 0
              CHANNELS 3 Zrotation Xrotation Yrotation
              JOINT Head
              {
                OFFSET 6.69364 2.86102e-005 0
                CHANNELS 3 Zrotation Xrotation Yrotation
                End Site
                {
                  OFFSET 0 0 0
                }
              }
            }
          }
        }
      }
    }
  }
}
MOTION
Frames:	17
Frame Time:	0.0416667
256.331 95.6882 240.996 -91.416 43.1136 -92.2655 -175.226 27.714 84.0988 -31.2539 17.1397 -3.77396 61.1416 -1.19624 0.541808 14.7621 -7.06231 1.78936 163.153 -22.0642 84.714 -75.9299 -6.37416 -0.25333 64.4206 -2.21193 -4.52665 100.555 -19.4412 25.4073 2.46887 8.16025 -88.6944 10.5053 5.51674 2.10381 -1.15522 5.60396 1.85834 -23.7477 4.6294 3.66671 -3.73503 4.62941 3.66671 93.2747 -18.4115 -104.264 40.1054 -7.11656 -0.844555 -40.3511 -4.43549 -80.213 -5.28942 -0.201608 -0.822707 -86.7214 -42.6975 82.3855 -9.28613 28.0201 20.3542 34.4421 -31.6727 -115.152 2.1757 -0.0336403 -2.93738 17.5472 -12.0927 -13.1796 -7.33394 -7.94365 0.847773 
247.164 93.1769 232.991 -92.2565 39.2173 -95.7642 -173.261 25.9786 79.0363 -46.4725 19.8586 -4.58321 73.9478 8.19241 3.83308 17.6533 -6.08522 2.47879 159.59 -8.91068 80.8134 -98.5668 -3.10931 -1.97265 68.0927 -4.77486 -4.25162 102.955 -21.7584 21.5091 1.31271 8.38731 -88.1046 10.0391 3.47851 3.4793 -1.63137 3.6282 3.3229 -24.1482 2.27304 4.36271 -4.13551 2.27303 4.3627 93.4223 -22.1493 -102.427 47.7326 -14.1615 7.95742 -42.1079 -0.12722 -79.2908 -19.4734 -1.57816 4.53745 -89.1056 -50.0233 80.0728 1.87636 17.8663 -5.58511 33.0961 -29.1319 -116.507 3.96723 0.232227 1.16724 20.1349 -11.4919 -16.5645 -6.48551 -5.98278 1.99196 
238.514 91.3396 226.164 -92.5183 35.8761 -100.561 -173.863 18.3979 74.6098 -49.1128 20.5183 -4.86142 81.8578 14.2663 3.31203 21.7073 -4.69032 3.48041 162.542 10.1866 78.4366 -117.868 -17.0779 -4.18395 58.298 1.17754 -12.4661 103.147 -26.5821 11.6483 0.133512 8.6176 -87.4787 9.57836 1.40324 4.88631 -2.10081 1.61668 4.82005 -24.5621 -0.127993 5.08176 -4.54941 -0.127982 5.08176 95.4128 -19.4053 -98.6407 60.7798 -19.6864 20.6538 -42.533 1.77908 -74.8535 -19.1434 -1.02992 1.08845 -89.5838 -47.8757 78.8841 -0.383377 12.2161 -35.364 49.5289 -32.6779 -107.809 0.733444 0.167014 2.77988 25.2498 -9.89567 -16.443 -8.16463 -3.61228 0.0780161 
229.918 90.969 218.348 -90.8844 36.8145 -99.3999 -173.702 9.2275 79.2433 -46.0968 18.1611 -4.01795 91.0751 18.8166 -2.48191 21.4068 -6.06469 5.94127 167.497 32.9546 85.6615 -124.108 -41.2954 -5.89299 34.888 25.9019 -27.7245 100.025 -31.0771 -0.920528 -0.729624 8.41481 -87.8678 10.0311 -0.484135 4.27298 -1.64676 -0.295796 4.2901 -24.1332 -1.74496 3.93091 -4.1205 -1.74498 3.9309 97.2041 -15.6022 -95.3015 69.8347 -27.7252 35.6128 -49.4386 4.58816 -74.3082 -13.4257 -0.559694 -0.497383 -89.5985 -39.3373 76.8245 -8.32546 2.5482 -53.1063 46.6006 -30.4106 -110.702 -0.504799 0.0216118 -0.811642 28.6232 -5.18586 -13.4359 -11.3289 0.316273 -0.0304248 
220.421 92.1261 209.247 -89.3659 38.999 -95.4552 -171.808 -3.55925 85.4287 -34.7876 19.8831 -3.39144 90.1936 20.4597 0.550307 23.5329 -2.15596 -0.0425662 171.337 41.1519 94.1515 -118.313 -35.7679 -5.05588 49.0861 14.1897 -41.3758 66.9335 -16.3391 0.277495 -1.70421 8.15322 -88.7125 10.5972 -2.80226 2.81184 -1.07404 -2.67582 2.93238 -23.6212 -3.51757 1.83948 -3.60856 -3.51756 1.83948 97.1606 -12.3829 -96.3979 74.9273 -32.0076 49.18 -52.35 8.49081 -73.71 -13.3683 -0.434433 -1.44871 -86.648 -29.86 79.7062 -13.8205 -8.55202 -61.4441 37.4356 -27.4811 -118.734 1.24505 0.0438314 -0.117254 31.5973 1.44816 -10.2803 -14.1724 5.63843 0.513693 
209.435 95.2988 199.422 -89.7878 40.7616 -91.189 -171.065 -17.8035 90.0857 -17.9768 21.8341 -1.36926 68.6488 7.33215 4.26819 39.0397 4.16659 -0.199035 177.264 41.1165 95.946 -101.132 -13.5778 -3.95402 71.5634 -9.23006 -24.3271 27.271 -1.57436 9.4393 -2.42028 8.18111 -89.493 10.5506 -4.5877 1.42132 -1.11319 -4.52069 1.6222 -23.7139 -4.80235 -0.0262918 -3.70129 -4.80236 -0.026308 97.9045 -9.61859 -95.0006 74.7604 -31.2197 55.6072 -53.5744 9.45696 -72.8714 -10.2928 -0.218794 -2.85904 -83.9571 -17.3959 82.1845 -18.7517 -12.3335 -61.3133 35.2386 -26.8067 -122.372 2.85849 0.0351914 -1.68478 35.1611 6.84531 -9.15067 -18.3105 10.2582 2.57804 
198.379 98.3528 189.099 -86.7044 42.2857 -88.4729 -170.202 -24.9176 93.9602 -7.85444 23.8099 1.04492 51.8226 -4.24913 1.89063 25.4903 -1.56517 -1.05464 -179.66 43.0497 98.6372 -77.531 1.81985 -2.96737 79.617 -9.89915 -2.90645 17.2975 1.84897 9.56818 -2.83596 7.92232 -90.6413 11.0299 -5.94279 -0.700167 -0.62737 -5.96785 -0.437005 -23.2577 -5.45681 -2.45895 -3.24509 -5.45679 -2.45895 98.8985 -2.74131 -94.7218 76.9903 -29.8388 59.8493 -54.0346 10.0647 -72.0244 -12.6456 -0.62174 -1.09179 -82.7847 -8.55532 82.2452 -20.5285 -13.9454 -56.5322 35.0938 -25.7936 -122.847 3.15634 0.0317651 -2.09674 38.5297 11.539 -6.13955 -25.5673 12.863 5.08631 
187.744 99.489 178.81 -82.3975 43.1042 -88.4687 -167.416 -27.7534 97.4617 -8.21893 17.4153 1.12039 53.8571 -2.78708 1.80137 17.2241 -6.95048 3.76596 -178.513 42.817 99.6838 -50.7518 1.64487 -1.50636 75.2502 -8.0147 -1.81489 21.0502 1.29524 6.92052 -2.94218 7.62483 -91.5243 11.5654 -6.56613 -2.3608 -0.0905197 -6.66364 -2.06844 -22.7106 -5.5529 -4.22899 -2.69793 -5.55289 -4.229 99.4292 4.00404 -95.0219 81.7583 -26.639 63.5556 -51.833 13.8102 -73.2364 -18.2395 -0.591917 -0.968113 -82.2729 -2.67215 81.8981 -18.1113 -13.5148 -56.9216 36.2149 -23.8487 -118.918 3.44465 -0.0172125 -2.79915 34.4436 14.1585 -6.57994 -25.0572 14.3924 10.6616 
177.189 99.0906 168.373 -83.275 41.7058 -88.8279 -163.082 -32.3092 101.443 -13.4069 11.4505 -0.362766 56.7034 -1.44581 1.34024 20.5075 -5.45135 3.87582 -178.334 34.5145 96.7863 -20.6468 -3.12558 -0.241395 66.7089 -5.99522 -2.43768 23.5995 1.14491 4.07932 -3.21424 7.62132 -91.4773 11.5738 -7.08533 -2.21351 -0.0791628 -7.1758 -1.8981 -22.7213 -6.09201 -4.24639 -2.70871 -6.092 -4.24638 99.6028 2.48464 -93.4572 80.6838 -25.0965 63.5402 -51.2075 18.059 -76.6385 -8.69623 0.432234 -11.595 -81.9717 -0.906915 82.1724 -11.235 -7.98275 -58.2376 37.8959 -23.0626 -113.375 -1.95966 -0.0925065 -4.91777 30.4806 13.4767 -10.4125 -23.9581 14.6142 13.9759 
166.531 97.8378 158.071 -88.5412 38.5627 -87.8766 -158.173 -37.2936 107.18 -23.2994 9.75493 0.522337 59.494 0.0376004 1.23482 25.218 -3.38727 4.24377 179.236 26.9341 93.4599 -7.1972 -5.90212 0.547866 65.7788 -5.4771 -0.802994 25.1316 -0.0414391 5.99391 -3.58483 7.85586 -91.1066 11.1299 -7.64904 -1.4604 -0.518881 -7.70586 -1.1204 -23.2004 -6.85515 -3.7014 -3.18778 -6.85514 -3.70141 100.089 0.0694 -90.181 71.3204 -22.1395 57.3235 -66.0468 14.7221 -78.302 -11.0193 -0.211663 -2.9253 -82.5929 -3.67577 81.2635 -7.61337 -2.86665 -56.286 40.8306 -25.0275 -110.998 -1.94568 -0.0975079 -5.68896 26.6368 12.5883 -11.6116 -21.6462 13.959 15.4778 
156.68 95.8323 147.775 -91.1913 36.4589 -88.7655 -156.904 -35.4331 110.18 -40.6129 8.97148 2.74464 62.1881 1.42201 4.75881 20.4779 -4.25096 1.51991 177.406 27.6502 90.9763 -14.9582 -9.87412 0.538416 61.7655 -1.66145 -1.67737 25.0438 1.67717 0.175357 -3.6016 7.79486 -90.7537 11.2793 -7.51844 -0.755194 -0.369803 -7.54433 -0.421665 -23.0586 -6.94226 -2.99046 -3.04595 -6.94228 -2.99047 100.797 -6.09631 -87.1665 62.7669 -18.5621 49.5475 -60.165 17.9648 -84.6999 -10.7699 -0.0614217 -4.83975 -83.8052 -9.73634 80.0685 -4.45846 4.01025 -52.4039 38.1115 -25.3729 -110.563 0.580714 -0.128044 -6.05727 22.2402 11.6238 -10.2105 -17.9563 12.6268 15.8056 
147.003 92.9287 137.806 -93.5127 36.1835 -87.1871 -157.718 -30.6346 111.664 -59.9653 6.18201 5.02707 65.1244 2.89944 7.38567 18.3336 -4.11665 -0.578643 173.119 34.051 91.5418 -41.5027 -15.5139 3.19778 64.4013 -1.19768 -4.08099 13.6444 5.15057 4.62457 -3.44706 7.85778 -90.8396 11.1435 -7.25095 -0.962404 -0.507262 -7.28623 -0.640656 -23.1815 -6.62517 -3.10622 -3.16886 -6.62517 -3.10622 99.6076 -16.1531 -88.721 46.6545 -10.7595 38.4008 -57.0643 19.4307 -92.7193 -10.734 -0.288522 -2.29737 -85.7525 -22.3426 79.3963 -1.07454 11.0493 -42.8348 35.1071 -26.2993 -111.815 0.770905 -0.142249 -6.31322 19.234 12.4096 -4.36318 -13.3415 12.2758 12.6246 
138.31 90.7894 128.394 -95.6401 38.7094 -80.894 -161.06 -21.8855 111.355 -81.7563 8.99305 6.18955 69.2986 5.65848 7.93426 17.3733 -4.07768 -1.42562 170.943 30.472 98.8531 -55.4412 -16.3585 3.74834 73.5045 -8.65957 -7.45126 16.8318 4.01098 4.10522 -2.78705 8.36016 -91.5077 10.0879 -6.24023 -2.47234 -1.56981 -6.34294 -2.19443 -24.1762 -5.20875 -4.23643 -4.16351 -5.20874 -4.23643 96.6285 -28.6914 -93.6565 31.876 -3.30729 19.5202 -52.8065 18.1688 -98.7724 -11.1447 -0.600389 1.12336 -88.0038 -39.0701 79.4853 2.15594 18.3899 -31.3567 38.7121 -26.9113 -106.71 0.513298 -0.0567223 -3.02792 21.1321 13.7298 2.9685 -10.9097 11.9104 6.3703 
130.246 90.2787 120.15 -93.5329 40.7713 -77.7476 -169.155 -4.80049 108.503 -101.024 17.1455 5.77101 68.5417 5.63965 8.25032 13.9904 -4.83136 -2.65194 171.752 23.856 103.694 -56.6235 -15.942 4.46692 79.6384 -14.3838 -9.34708 19.3539 2.67315 4.84113 -1.89416 8.33792 -92.2868 10.092 -4.81542 -4.13698 -1.57597 -4.99266 -3.92105 -24.0977 -3.35154 -5.3911 -4.0851 -3.35152 -5.3911 94.6423 -28.5549 -97.8052 28.5252 0.0625742 -0.353902 -54.8519 17.3931 -99.7334 -10.6921 -0.861282 4.39367 -88.8981 -44.1575 79.153 -15.7421 23.121 -11.6679 45.9771 -23.198 -97.9054 -4.16792 -0.0942981 -4.45069 24.1841 13.8207 7.13302 -14.4408 10.2793 6.16324 
122.512 91.0247 113.071 -92.6311 40.888 -80.9766 -176.779 11.7508 100.233 -110.081 15.8413 4.98233 69.3126 6.30915 10.7345 13.3961 -3.54363 -5.35218 172.876 15.4498 100.84 -53.9341 -14.398 3.06976 82.9823 -17.6725 -9.44889 24.1897 0.933787 3.9666 -1.09945 8.03829 -92.0202 10.7359 -3.12058 -3.73266 -0.93618 -3.28175 -3.59185 -23.4417 -1.85581 -4.49666 -3.42909 -1.85582 -4.49666 93.4982 -28.7608 -100.109 26.5148 8.53031 -15.8875 -51.1003 16.712 -104.403 -13.1471 -1.39531 6.99832 -88.6133 -47.4585 80.3073 -27.9948 22.9364 9.99862 44.1606 -23.8311 -98.9154 -3.46048 -0.0716569 -5.93527 20.1829 10.0941 7.86704 -11.8258 6.81393 6.47632 
114.115 92.9692 105.266 -94.0668 41.5685 -82.7219 -178.447 24.6786 92.544 -105.025 8.63925 4.83946 72.8916 8.23278 13.1622 15.1128 -4.49414 -2.40999 174.205 2.46026 98.3244 -46.0412 -13.7642 1.29905 81.7214 -16.7241 -8.74096 27.7148 -0.30517 3.06543 0.13782 7.89095 -91.4882 11.0767 -0.416049 -2.92102 -0.597436 -0.544132 -2.89992 -23.1065 0.480643 -2.91107 -3.0939 0.480644 -2.91107 93.7309 -25.4123 -100.649 31.8531 22.6859 -24.3945 -42.0978 13.6123 -113.007 -17.7597 -2.13575 8.8643 -87.1375 -45.2448 82.1914 -35.1908 26.174 29.8906 36.6935 -27.1562 -104.968 -2.98297 -0.0772127 -6.94326 19.1789 4.11831 4.62978 -11.5144 2.11055 6.37964 
104.692 95.6596 96.4341 -95.5003 43.4384 -84.3662 -178.541 31.0139 87.7683 -89.5295 5.22611 4.31799 76.0568 8.97287 9.58701 12.9817 -5.75861 -1.81985 173.777 -10.1135 94.0617 -34.6531 -16.3773 -0.550513 72.6323 -9.31276 -6.88411 33.431 -2.69031 3.15137 1.63325 7.79331 -90.9239 11.3127 2.81981 -2.12071 -0.357149 2.72375 -2.24277 -22.9115 3.32666 -1.1747 -2.89888 3.32666 -1.1747 94.8437 -20.3969 -99.7384 37.0222 37.1467 -26.463 -35.6405 9.45884 -120.515 -19.8418 -2.32839 8.43645 -86.8623 -41.0895 81.8442 -37.2951 30.4528 42.4446 36.4051 -30.4162 -105.927 -1.14669 -0.117151 -6.86006 19.177 -2.42502 1.75656 -12.3528 -3.2978 5.19994 
